<?xml version="1.0" standalone="no"?>
<!DOCTYPE svg PUBLIC "-//W3C//DTD SVG 20010904//EN"
 "http://www.w3.org/TR/2001/REC-SVG-20010904/DTD/svg10.dtd">
<svg version="1.0" xmlns="http://www.w3.org/2000/svg"
 width="272.000000pt" height="263.000000pt" viewBox="0 0 272.000000 263.000000"
 preserveAspectRatio="xMidYMid meet">

<g transform="translate(0.000000,263.000000) scale(0.100000,-0.100000)"
fill="#1f242d" stroke="none">
<path d="M300 1643 c0 -501 -5 -900 -10 -943 -17 -130 -71 -313 -121 -412 -12
-24 -41 -74 -65 -111 -24 -37 -44 -70 -44 -72 0 -3 139 -5 310 -5 l310 0 2
1028 3 1027 465 0 c256 0 477 -3 492 -7 162 -46 190 -357 39 -435 -44 -23 -46
-23 -478 -23 l-433 0 0 -437 c1 -572 7 -611 122 -719 46 -43 123 -94 142 -94
3 0 7 201 8 448 l3 447 142 3 141 3 69 -95 c37 -52 161 -224 276 -383 114
-158 287 -393 385 -521 l177 -233 203 -2 c111 -2 202 1 202 5 0 8 -194 271
-559 758 -218 291 -331 447 -331 458 0 6 17 16 38 22 93 30 156 74 242 169 23
25 67 129 85 205 23 90 23 242 1 325 -27 106 -82 197 -171 287 -88 88 -181
142 -283 163 -35 7 -271 11 -707 11 l-655 0 0 -867z"/>
<path d="M1220 806 l0 -366 260 0 c143 0 260 3 260 6 0 6 -50 76 -318 447
l-202 279 0 -366z"/>
</g>
</svg>
